<?xml version="1.0" encoding="utf-8"?>
<!-- Generator: Adobe Illustrator 23.0.3, SVG Export Plug-In . SVG Version: 6.00 Build 0)  -->
<svg version="1.1" id="Layer_1" xmlns="http://www.w3.org/2000/svg" xmlns:xlink="http://www.w3.org/1999/xlink" x="0px" y="0px"
	 viewBox="0 0 252 144" style="enable-background:new 0 0 252 144;" xml:space="preserve">
<style type="text/css">
	.st0{fill:none;stroke:#3E8DC8;stroke-width:6.1479;stroke-linecap:round;stroke-linejoin:round;stroke-miterlimit:10;}
	.st1{fill:none;stroke:#FFCD37;stroke-width:6.1479;stroke-linecap:round;stroke-linejoin:round;stroke-miterlimit:10;}
	.st2{fill:none;stroke:#F9A31A;stroke-width:6.1479;stroke-linecap:round;stroke-linejoin:round;stroke-miterlimit:10;}
	.st3{fill:none;stroke:#FFFFFF;stroke-width:5.5482;stroke-linecap:round;stroke-linejoin:round;stroke-miterlimit:10;}
</style>
<g>
	<path class="st0" d="M26.81,45.69c0,0,38.45-48.09,85.33,11.34c47.89,60.72,90.94,85.96,125.5,47.13"/>
	<path class="st1" d="M22.06,82.85c0,0-1.01,35.76,33.99,40.75c29.29,4.18,50.56-25.99,50.56-25.99"/>
	<path class="st2" d="M235.05,49.44c0,0-10.93-18.63-32.83-22.02c-28.26-4.36-49.12,26.46-49.12,26.46"/>
	<polyline class="st3" points="6,88.55 21.99,57.48 37.97,88.55 	"/>
	<polyline class="st3" points="70.73,57.56 70.73,88.63 96.65,88.63 	"/>
	<path class="st3" d="M187.52,59.52c0,0-9.95-0.21-13.26,0c-4.81,0.3-12.95,5.38-13.02,15.68c-0.07,10.15,8.48,15.14,13.28,15.39
		c3.25,0.17,13,0,13,0V75.2"/>
	<path class="st3" d="M240.99,90.42h-11.82c-3.32,0-6.01-2.69-6.01-6.01V65.36c0-3.32,2.69-6.01,6.01-6.01h11.82
		c3.32,0,6.01,2.69,6.01,6.01v19.05C247,87.73,244.31,90.42,240.99,90.42z"/>
</g>
</svg>
