<?xml version="1.0" encoding="utf-8"?>
<!-- Generator: Adobe Illustrator 23.0.3, SVG Export Plug-In . SVG Version: 6.00 Build 0)  -->
<svg version="1.1" id="Layer_1" xmlns="http://www.w3.org/2000/svg" xmlns:xlink="http://www.w3.org/1999/xlink" x="0px" y="0px"
	 viewBox="0 0 2000 2000" style="enable-background:new 0 0 2000 2000;" xml:space="preserve">
<style type="text/css">
	.st0{fill:none;stroke:#408DC8;stroke-width:41;stroke-linecap:round;stroke-linejoin:round;stroke-miterlimit:10;}
	.st1{fill:none;stroke:#FFCE38;stroke-width:41;stroke-linecap:round;stroke-linejoin:round;stroke-miterlimit:10;}
	.st2{fill:none;stroke:#FAA41A;stroke-width:41;stroke-linecap:round;stroke-linejoin:round;stroke-miterlimit:10;}
	.st3{fill:none;stroke:#FFFFFF;stroke-width:37;stroke-linecap:round;stroke-linejoin:round;stroke-miterlimit:10;}
	.st4{fill:#999999;stroke:#B3B4B4;stroke-miterlimit:10;}
	.st5{font-family:'CenturyGothic';}
	.st6{font-size:100px;}
</style>
<path class="st0" d="M307.75,809.08c0,0,267-308,592.5,72.64c332.54,388.87,631.5,550.56,871.5,301.86"/>
<path class="st1" d="M274.75,1047.08c0,0-7,229,236,261c203.38,26.78,351.1-166.44,351.1-166.44"/>
<path class="st2" d="M1753.75,833.08c0,0-75.89-119.35-228-141c-196.24-27.93-341.1,169.49-341.1,169.49"/>
<polyline class="st3" points="163.25,1083.58 274.25,884.58 385.25,1083.58 "/>
<polyline class="st3" points="612.75,885.08 612.75,1084.08 792.75,1084.08 "/>
<path class="st3" d="M1423.75,897.64c0,0-69.09-1.32-92.07,0c-33.4,1.92-89.93,34.44-90.43,100.44c-0.5,65,58.88,96.99,92.25,98.56
	c22.54,1.06,90.25,0,90.25,0v-98.56"/>
<path class="st3" d="M1796.68,1095.58h-85.36c-22.13,0-40.07-17.94-40.07-40.07V936.65c0-22.13,17.94-40.07,40.07-40.07h85.36
	c22.13,0,40.07,17.94,40.07,40.07v118.86C1836.75,1077.64,1818.81,1095.58,1796.68,1095.58z"/>
<text transform="matrix(1 0 0 1 541.1477 1523.7236)" class="st4 st5 st6">Pre Built &amp; Custom AI</text>
</svg>
